<svg viewBox="0 0 640 400" data-background-color="#ffffff" preserveAspectRatio="xMidYMid meet" height="400" width="640" xmlns="http://www.w3.org/2000/svg" xmlns:xlink="http://www.w3.org/1999/xlink"><rect width="640" height="400" x="0" y="0" opacity="1" fill="#ffffff" data-fill-palette-color="background" id="background"></rect><g id="tight-bounds" transform="matrix(1,0,0,1,160,20)"><svg viewBox="0 0 320 360" height="360" width="320"><g><svg></svg></g><g><svg viewBox="0 0 320 360" height="360" width="320"><g><path xmlns="http://www.w3.org/2000/svg" d="M297.491 100.645c-12.426-21.51-112.674-79.355-137.491-79.355-24.817 0-125.028 57.845-137.491 79.355-11.591 20.02-11.591 138.726 0 158.746 12.463 21.474 112.674 79.319 137.491 79.319 24.817 0 125.064-57.845 137.491-79.355 11.591-20.02 11.591-138.69 0-158.71zM309.481 93.705c-14.461-24.998-119.469-86.295-149.481-86.295-30.012 0-135.02 61.297-149.481 86.295-14.025 24.199-14.025 148.391 0 172.59 14.461 24.998 119.469 86.295 149.481 86.295 30.012 0 135.02-61.297 149.481-86.259 14.025-24.235 14.025-148.427 0-172.626zM300.906 261.353c-12.753 22.055-115.472 81.317-140.906 81.318-25.434 0-128.153-59.298-140.906-81.354-11.881-20.529-11.881-142.178 0-162.707 12.753-22.019 115.472-81.281 140.906-81.281 25.434 0 128.153 59.298 140.906 81.318 11.881 20.529 11.881 142.178 0 162.706z" fill="#060606" fill-rule="nonzero" stroke="none" stroke-width="1" stroke-linecap="butt" stroke-linejoin="miter" stroke-miterlimit="10" stroke-dasharray="" stroke-dashoffset="0" font-family="none" font-weight="none" font-size="none" text-anchor="none" style="mix-blend-mode: normal" data-fill-palette-color="tertiary"></path></g><g transform="matrix(1,0,0,1,48,90)"><svg viewBox="0 0 224 180" height="180" width="224"><g><svg viewBox="0 0 224 180" height="180" width="224"><g><svg viewBox="0 0 224 180" height="180" width="224"><g><svg viewBox="0 0 224 180" height="180" width="224"><g><svg viewBox="0 0 224 180" height="180" width="224"><g transform="matrix(1,0,0,1,64.84676190665138,47.57359312880715)"><svg viewBox="0 0 94.30647618669722 84.8528137423857" height="84.8528137423857" width="94.30647618669722"><g><svg xmlns="http://www.w3.org/2000/svg" data-name="Layer 1" viewBox="37.92387771606445 59.76900100708008 436.1871032714844 392.4619445800781" x="0" y="0" height="84.8528137423857" width="94.30647618669722" class="icon-o-0" data-fill-palette-color="quaternary" id="o-0"><g data-name="Group" fill="#ff00ad" data-fill-palette-color="quaternary"><path data-name="Compound Path" d="M470.874 165.955c-12.885-63.862-59-105.127-117.489-105.127-30.968 0-64.531 12.048-97.336 34.892-33.26-23.858-66.2-35.951-97.983-35.951-58.817 0-104.732 41.712-116.972 106.252-17.972 93.672 39.07 218.02 207.021 284.658 0.122 0.048 0.244 0.093 0.368 0.134a20.578 20.578 0 0 0 15.013 0c0.141-0.046 0.279-0.1 0.417-0.153 77.084-31.23 136.866-77 172.884-132.353 31.614-48.587 43.721-102.676 34.088-152.3ZM133 278.109a7 7 0 0 1-14 0V219.891a7 7 0 1 1 14 0Zm29 26.941a7 7 0 0 1-14 0V192.95a7 7 0 0 1 14 0Zm29 26.941a7 7 0 0 1-14 0V166.009a7 7 0 0 1 14 0Zm29-26.941a7 7 0 0 1-14 0V192.95a7 7 0 0 1 14 0Zm28-28.8a7 7 0 0 1-14 0v-54.5a7 7 0 0 1 14 0ZM278 290.5a7 7 0 0 1-14 0V207.5a7 7 0 0 1 14 0Zm28 14.554a7 7 0 0 1-14 0V192.95a7 7 0 0 1 14 0Zm29 26.941a7 7 0 0 1-14 0V166.009a7 7 0 0 1 14 0Zm29-26.941a7 7 0 0 1-14 0V192.95a7 7 0 0 1 14 0Zm29-26.941a7 7 0 0 1-14 0V219.891a7 7 0 1 1 14 0Z" fill="#ff00ad" data-fill-palette-color="quaternary"></path></g></svg></g></svg></g><path d="M42.489 65.757V65.757C42.093 66.978 41.521 68.006 40.773 68.84 40.02 69.666 39.15 70.223 38.162 70.512 37.174 70.8 36.16 70.761 35.12 70.394V70.394C34.496 70.173 34.068 69.82 33.836 69.334 33.612 68.844 33.581 68.372 33.741 67.918V67.918C33.901 67.464 34.192 67.153 34.614 66.983 35.042 66.815 35.451 66.8 35.842 66.938V66.938C36.232 67.076 36.569 67.167 36.851 67.21 37.125 67.257 37.406 67.225 37.693 67.114V67.114C38.263 66.904 38.809 66.062 39.33 64.588V64.588C39.613 63.788 39.687 63.045 39.554 62.36 39.427 61.677 39.054 61.226 38.437 61.008V61.008C38.027 60.863 37.52 61.056 36.914 61.586V61.586C36.502 61.951 35.749 62.826 34.657 64.212V64.212C33.484 65.726 32.371 66.782 31.316 67.38 30.267 67.981 29.097 68.053 27.805 67.596V67.596C26.816 67.246 26.053 66.658 25.516 65.83 24.973 65 24.668 64.056 24.603 62.998 24.537 61.94 24.687 60.895 25.052 59.861V59.861C25.399 58.779 25.933 57.809 26.655 56.951 27.382 56.095 28.204 55.485 29.119 55.121 30.033 54.764 30.93 54.741 31.812 55.052V55.052C32.285 55.219 32.63 55.536 32.848 56.003 33.06 56.468 33.084 56.93 32.921 57.39V57.39C32.81 57.705 32.608 57.977 32.314 58.206 32.027 58.438 31.727 58.545 31.414 58.526V58.526C31.003 58.487 30.661 58.522 30.388 58.632 30.124 58.737 29.85 58.91 29.567 59.15V59.15C29.209 59.462 28.926 59.76 28.721 60.041 28.515 60.323 28.309 60.754 28.104 61.333V61.333C27.86 62.026 27.79 62.643 27.897 63.184 27.997 63.723 28.252 64.065 28.662 64.209V64.209C29.178 64.392 29.694 64.287 30.208 63.895 30.716 63.5 31.282 62.892 31.905 62.07V62.07C33.139 60.486 34.028 59.454 34.573 58.973V58.973C35.471 58.178 36.298 57.683 37.054 57.489 37.816 57.298 38.661 57.366 39.587 57.693V57.693C40.576 58.043 41.356 58.655 41.925 59.53 42.489 60.402 42.817 61.4 42.909 62.524 42.996 63.64 42.857 64.718 42.489 65.757ZM52.451 47.503V47.503C52.225 47.872 51.904 48.1 51.489 48.185 51.069 48.267 50.665 48.2 50.278 47.984V47.984C48.884 47.281 46.735 46.229 43.829 44.828V44.828C41.144 43.508 38.791 42.349 36.772 41.351V41.351C36.35 41.124 36.074 40.779 35.941 40.315 35.809 39.852 35.857 39.409 36.083 38.988 36.31 38.567 36.653 38.293 37.112 38.166 37.576 38.033 38.018 38.081 38.439 38.308V38.308C40.439 39.35 43.523 40.913 47.692 42.994V42.994C45.923 39.866 44.122 36.666 42.289 33.396V33.396C42.121 33.078 42.06 32.741 42.108 32.387 42.16 32.036 42.299 31.729 42.524 31.464V31.464C42.784 31.159 43.114 30.957 43.513 30.858 43.913 30.759 44.732 31.039 45.971 31.698V31.698L50.946 33.601 54.539 35.21C54.31 34.84 53.412 33.589 51.847 31.459 50.286 29.333 49.123 27.637 48.357 26.371V26.371C48.103 25.979 48.023 25.547 48.117 25.075 48.216 24.598 48.466 24.227 48.867 23.962 49.263 23.702 49.7 23.622 50.177 23.721 50.649 23.816 51.02 24.066 51.29 24.47V24.47C52.041 25.723 52.998 27.161 54.162 28.783 55.322 30.401 56.05 31.437 56.348 31.892V31.892L57.985 34.562 59.599 37.028C59.799 37.329 59.906 37.652 59.919 37.997 59.928 38.347 59.833 38.666 59.633 38.952V38.952C59.439 39.356 59.146 39.638 58.756 39.798 58.356 39.958 57.925 39.96 57.462 39.803V39.803C55.167 38.921 52.845 37.985 50.494 36.994V36.994C49.228 36.47 48.165 36.07 47.303 35.793V35.793L52.765 45.401C52.965 45.765 53.038 46.138 52.983 46.522 52.929 46.905 52.751 47.232 52.451 47.503ZM68.389 29.626V29.626C67.989 29.331 67.761 28.949 67.702 28.483V28.483L65.426 13.162C65.381 12.827 65.433 12.5 65.584 12.184 65.728 11.871 65.951 11.621 66.252 11.433V11.433C66.538 11.193 66.882 11.067 67.282 11.054 67.691 11.043 68.061 11.144 68.39 11.357V11.357L72.285 14.444 76.837 18.033 80.565 21.089C80.952 21.391 81.171 21.781 81.221 22.26 81.277 22.736 81.151 23.17 80.844 23.561 80.532 23.946 80.134 24.165 79.649 24.219 79.162 24.281 78.732 24.169 78.36 23.881V23.881L75.459 21.727C73.816 22.611 72.216 23.542 70.66 24.522V24.522L71.236 28.002C71.277 28.479 71.15 28.909 70.853 29.293 70.555 29.687 70.163 29.91 69.678 29.964 69.19 30.027 68.761 29.914 68.389 29.626ZM70.149 20.694V20.694C70.7 20.379 71.496 19.925 72.535 19.333V19.333L69.602 16.862ZM101.649 16.3V16.3C100.917 14.7 100.323 13.505 99.867 12.714V12.714C99.416 12.045 98.964 11.578 98.511 11.313V11.313C98.026 11.027 97.387 10.918 96.595 10.985V10.985C96.422 11.036 96.183 11.101 95.878 11.179 95.566 11.253 95.403 11.291 95.39 11.294V11.294C94.753 11.444 94.266 11.566 93.93 11.658V11.658L93.195 11.815C93.689 14.027 94.101 15.9 94.429 17.436V17.436C94.53 17.906 94.446 18.344 94.178 18.751 93.916 19.155 93.55 19.408 93.079 19.509 92.602 19.611 92.161 19.531 91.757 19.269 91.352 19.007 91.099 18.641 90.999 18.17V18.17C90.604 16.327 90.064 13.884 89.378 10.839 88.692 7.794 88.186 5.513 87.862 3.997V3.997C87.761 3.527 87.841 3.089 88.103 2.685 88.372 2.279 88.741 2.025 89.212 1.924V1.924L89.33 1.899C91.6 1.106 93.771 0.648 95.842 0.525V0.525C97.44 0.423 98.758 0.591 99.795 1.032V1.032C101.351 1.69 102.258 2.829 102.516 4.448V4.448C102.752 6.031 102.203 7.443 100.87 8.686V8.686C101.605 9.246 102.251 9.965 102.808 10.844 103.372 11.721 104.037 13.024 104.804 14.753V14.753C105.013 15.187 105.04 15.632 104.885 16.089 104.725 16.554 104.428 16.891 103.994 17.1 103.567 17.308 103.122 17.335 102.658 17.181 102.201 17.026 101.865 16.732 101.649 16.3ZM92.412 8.395L92.49 8.378C93.808 7.925 94.958 7.645 95.939 7.537V7.537C96.067 7.496 96.178 7.455 96.272 7.415V7.415C97.197 7.046 97.919 6.635 98.438 6.182V6.182C98.908 5.76 99.113 5.361 99.053 4.984V4.984C99.015 4.651 98.817 4.41 98.457 4.261V4.261C97.901 4.025 97.09 3.942 96.025 4.013V4.013C94.748 4.081 93.283 4.354 91.628 4.831V4.831C91.841 5.824 92.102 7.012 92.412 8.395ZM114.383 15.818V15.818C114.242 15.341 114.289 14.899 114.523 14.491V14.491L121.934 0.891C122.1 0.595 122.338 0.367 122.649 0.204 122.953 0.041 123.281-0.024 123.634 0.008V0.008C124.007-0.012 124.358 0.094 124.685 0.325 125.018 0.563 125.252 0.866 125.387 1.234V1.234L126.637 6.044 128.109 11.651 129.245 16.335C129.372 16.81 129.312 17.254 129.063 17.666 128.821 18.08 128.46 18.35 127.979 18.477 127.498 18.597 127.048 18.532 126.629 18.283 126.202 18.039 125.927 17.691 125.803 17.237V17.237L124.784 13.77C122.941 13.486 121.103 13.266 119.269 13.111V13.111L117.634 16.236C117.38 16.641 117.019 16.908 116.551 17.036 116.075 17.171 115.628 17.113 115.209 16.864 114.782 16.62 114.507 16.271 114.383 15.818ZM121.168 9.747V9.747C121.798 9.828 122.706 9.945 123.892 10.098V10.098L123.039 6.359ZM140.465 22.724V22.724C139.955 22.472 139.634 22.07 139.501 21.519V21.519C139.334 21.078 139.343 20.634 139.529 20.19V20.19C140.211 18.628 141.171 16.418 142.408 13.56V13.56L145.227 7.112C145.425 6.673 145.746 6.367 146.191 6.194 146.635 6.02 147.08 6.026 147.524 6.212 147.971 6.406 148.282 6.726 148.455 7.17 148.629 7.615 148.626 8.061 148.446 8.508V8.508L145.816 14.513 143.297 20.295C144.041 20.63 145.125 21.111 146.55 21.739 147.984 22.363 149.033 22.825 149.697 23.125V23.125C150.142 23.325 150.452 23.645 150.628 24.083 150.807 24.516 150.8 24.945 150.608 25.372 150.416 25.798 150.094 26.097 149.644 26.268 149.193 26.438 148.745 26.423 148.3 26.223V26.223C147.801 25.998 146.499 25.422 144.395 24.495V24.495C142.275 23.554 140.965 22.964 140.465 22.724ZM158.967 33.623V33.623C158.59 33.314 158.369 32.925 158.304 32.456 158.238 31.979 158.353 31.549 158.648 31.169V31.169C158.923 30.833 159.275 30.621 159.703 30.531 160.131 30.442 160.529 30.505 160.897 30.72V30.72C162.752 28.482 165.079 25.632 167.877 22.171V22.171C167.623 21.849 167.492 21.482 167.484 21.07 167.477 20.657 167.611 20.283 167.887 19.948V19.948C168.196 19.571 168.594 19.365 169.08 19.332 169.556 19.299 169.983 19.438 170.36 19.747V19.747L172.532 21.557C172.904 21.862 173.109 22.255 173.147 22.736 173.18 23.221 173.044 23.65 172.739 24.022V24.022C172.472 24.348 172.133 24.545 171.721 24.614 171.305 24.678 170.909 24.613 170.534 24.417V24.417C167.788 27.835 165.494 30.655 163.652 32.878V32.878C163.93 33.193 164.077 33.56 164.095 33.981 164.103 34.403 163.981 34.778 163.728 35.107V35.107C163.419 35.484 163.03 35.705 162.561 35.77 162.083 35.836 161.654 35.722 161.274 35.427V35.427ZM173.395 46.792V46.792C173 47.068 172.566 47.164 172.091 47.081 171.617 46.997 171.239 46.755 170.96 46.356 170.684 45.961 170.587 45.527 170.671 45.052 170.755 44.578 170.994 44.202 171.388 43.926 171.788 43.647 173.768 42.24 177.329 39.705 180.885 37.175 182.876 35.789 183.303 35.548V35.548C183.708 35.288 184.145 35.207 184.613 35.304 185.075 35.405 185.446 35.655 185.725 36.054V36.054C185.771 36.12 185.814 36.192 185.853 36.271V36.271C185.872 36.299 185.9 36.328 185.938 36.358V36.358C187.381 37.836 188.405 39.065 189.009 40.045V40.045C190.188 41.986 190.524 43.847 190.018 45.629V45.629C189.638 46.997 188.937 48.046 187.915 48.778 186.903 49.511 185.819 49.792 184.664 49.622V49.622C183.706 49.501 182.782 49.153 181.89 48.579 180.994 47.998 180.233 47.307 179.606 46.506V46.506C179.404 46.24 179.199 45.947 178.991 45.627 178.785 45.298 178.546 44.899 178.274 44.428 178.008 43.954 177.86 43.686 177.833 43.624V43.624C175.788 45.096 174.309 46.152 173.395 46.792ZM182.394 44.371V44.371C182.758 44.867 183.192 45.277 183.696 45.601 184.197 45.919 184.652 46.098 185.063 46.137V46.137C185.265 46.158 185.431 46.156 185.56 46.131 185.691 46.097 185.878 45.949 186.12 45.69 186.368 45.427 186.553 45.09 186.673 44.679V44.679C186.897 43.869 186.679 42.933 186.017 41.871V41.871C185.581 41.156 184.898 40.309 183.967 39.329V39.329C183.04 39.962 181.949 40.717 180.696 41.595V41.595L180.707 41.611 181.273 42.647C181.495 43.022 181.692 43.345 181.865 43.615 182.029 43.884 182.205 44.136 182.394 44.371ZM182.104 66.345V66.345C181.942 65.885 181.955 65.437 182.142 65.003 182.333 64.56 182.654 64.253 183.103 64.08V64.08C183.513 63.936 183.924 63.937 184.336 64.082 184.749 64.228 185.056 64.488 185.259 64.863V64.863C188.006 63.911 191.473 62.68 195.661 61.171V61.171C195.61 60.764 195.688 60.383 195.895 60.026 196.103 59.67 196.412 59.419 196.821 59.275V59.275C197.282 59.113 197.728 59.144 198.161 59.367 198.585 59.586 198.878 59.926 199.04 60.386V60.386L199.959 63.06C200.119 63.513 200.091 63.956 199.874 64.386 199.65 64.819 199.312 65.115 198.858 65.275V65.275C198.461 65.415 198.069 65.407 197.681 65.253 197.292 65.093 196.987 64.831 196.768 64.469V64.469C192.648 65.969 189.224 67.191 186.496 68.136V68.136C186.571 68.549 186.506 68.94 186.303 69.309 186.091 69.674 185.792 69.932 185.406 70.082V70.082C184.946 70.244 184.498 70.231 184.064 70.044 183.621 69.853 183.314 69.532 183.142 69.083V69.083ZM29.53 122.678V122.678C29.065 121.467 28.866 120.293 28.931 119.157 28.998 118.027 29.327 117.035 29.918 116.18 30.509 115.326 31.33 114.712 32.382 114.339V114.339C33.018 114.114 33.577 114.121 34.059 114.362 34.548 114.6 34.874 114.949 35.037 115.408V115.408C35.2 115.868 35.172 116.3 34.953 116.704 34.726 117.103 34.414 117.373 34.017 117.514V117.514C33.621 117.655 33.299 117.797 33.052 117.941 32.805 118.085 32.605 118.291 32.452 118.558V118.558C32.134 119.082 32.24 120.09 32.769 121.583V121.583C33.057 122.396 33.469 123.029 34.006 123.484 34.543 123.939 35.124 124.056 35.747 123.835V123.835C36.157 123.69 36.435 123.216 36.583 122.412V122.412C36.672 121.863 36.705 120.695 36.682 118.909V118.909C36.641 116.974 36.843 115.435 37.289 114.291 37.734 113.148 38.609 112.345 39.913 111.883V111.883C40.915 111.528 41.892 111.504 42.845 111.812 43.791 112.121 44.628 112.672 45.355 113.464 46.086 114.247 46.639 115.164 47.011 116.216V116.216C47.427 117.289 47.62 118.394 47.591 119.531 47.561 120.669 47.302 121.668 46.813 122.53 46.324 123.391 45.633 123.98 44.738 124.297V124.297C44.266 124.464 43.795 124.436 43.326 124.212 42.861 123.98 42.546 123.634 42.383 123.174V123.174C42.27 122.853 42.254 122.508 42.335 122.138 42.424 121.767 42.596 121.493 42.853 121.317V121.317C43.203 121.086 43.45 120.843 43.593 120.586 43.73 120.332 43.833 120.023 43.902 119.658V119.658C43.98 119.177 44.013 118.761 44.003 118.41 43.983 118.055 43.87 117.585 43.662 116.999V116.999C43.414 116.3 43.078 115.77 42.652 115.411 42.227 115.051 41.81 114.944 41.4 115.089V115.089C40.871 115.276 40.531 115.687 40.38 116.322 40.23 116.957 40.169 117.797 40.2 118.843V118.843C40.238 120.872 40.197 122.247 40.078 122.97V122.97C39.878 124.168 39.544 125.085 39.074 125.719 38.595 126.35 37.887 126.831 36.948 127.164V127.164C35.947 127.519 34.945 127.533 33.943 127.208 32.942 126.882 32.05 126.308 31.27 125.486 30.483 124.666 29.903 123.73 29.53 122.678ZM42.305 144.964V144.964C41.973 144.677 41.8 144.315 41.787 143.878 41.773 143.45 41.906 143.06 42.185 142.707V142.707C43.116 141.43 44.512 139.453 46.374 136.775V136.775C48.124 134.306 49.659 132.14 50.977 130.277V130.277C51.273 129.893 51.663 129.675 52.145 129.623 52.629 129.562 53.063 129.679 53.447 129.975 53.831 130.271 54.052 130.658 54.109 131.137 54.165 131.625 54.048 132.059 53.757 132.439V132.439C52.389 134.274 50.332 137.105 47.588 140.931V140.931C50.992 139.669 54.476 138.383 58.04 137.073V137.073C58.381 136.958 58.723 136.951 59.066 137.054 59.413 137.163 59.701 137.351 59.931 137.621V137.621C60.191 137.926 60.341 138.286 60.379 138.701 60.408 139.116 59.996 139.889 59.143 141.021V141.021L56.441 145.685 54.25 149.017C54.657 148.846 56.049 148.15 58.426 146.93 60.807 145.716 62.688 144.826 64.07 144.263V144.263C64.506 144.074 64.955 144.065 65.416 144.234 65.871 144.408 66.2 144.716 66.402 145.158 66.6 145.596 66.611 146.047 66.437 146.512 66.264 146.968 65.953 147.299 65.505 147.505V147.505C64.135 148.051 62.546 148.773 60.74 149.673 58.934 150.573 57.783 151.134 57.286 151.355V151.355L54.347 152.559 51.633 153.78C51.299 153.934 50.955 153.99 50.603 153.947 50.256 153.901 49.955 153.754 49.7 153.506V153.506C49.322 153.249 49.088 152.908 48.998 152.484 48.904 152.064 48.971 151.638 49.199 151.205V151.205C50.446 149.052 51.755 146.881 53.128 144.69V144.69C53.856 143.516 54.426 142.52 54.836 141.704V141.704L44.359 145.61C43.969 145.75 43.584 145.762 43.204 145.647 42.834 145.532 42.534 145.304 42.305 144.964ZM62.849 163.946V163.946C62.899 163.451 63.113 163.062 63.49 162.776V162.776L75.63 152.876C75.911 152.666 76.223 152.544 76.566 152.508 76.918 152.47 77.251 152.532 77.566 152.696V152.696C77.924 152.823 78.212 153.059 78.43 153.406 78.648 153.753 78.751 154.127 78.739 154.527V154.527L78.071 159.497 77.299 165.319 76.562 170.147C76.5 170.634 76.275 171.025 75.885 171.318 75.495 171.612 75.052 171.722 74.557 171.647 74.063 171.582 73.667 171.353 73.367 170.96 73.062 170.564 72.94 170.129 73.001 169.657V169.657L73.369 166.026C71.748 165.051 70.113 164.141 68.464 163.297V163.297L65.734 165.585C65.342 165.869 64.9 165.983 64.409 165.927 63.912 165.868 63.514 165.642 63.215 165.249 62.916 164.856 62.794 164.421 62.849 163.946ZM71.524 160.873V160.873C72.082 161.19 72.889 161.649 73.947 162.25V162.25L74.577 158.423ZM99.6 177.909V177.909C99.583 176.128 99.524 174.78 99.425 173.864V173.864C99.29 173.056 99.069 172.439 98.764 172.012V172.012C98.432 171.545 97.888 171.18 97.131 170.917V170.917C96.945 170.891 96.694 170.851 96.378 170.797 96.062 170.737 95.898 170.706 95.885 170.703V170.703C95.234 170.585 94.734 170.496 94.384 170.435V170.435L93.639 170.277C93.182 172.523 92.788 174.424 92.457 175.98V175.98C92.356 176.457 92.099 176.829 91.687 177.097 91.275 177.365 90.83 177.448 90.353 177.346 89.875 177.245 89.503 176.988 89.235 176.576 88.968 176.164 88.885 175.719 88.986 175.242V175.242C89.384 173.372 89.894 170.891 90.518 167.799 91.141 164.706 91.616 162.392 91.943 160.856V160.856C92.044 160.379 92.301 160.006 92.713 159.739 93.124 159.478 93.568 159.398 94.045 159.499V159.499L94.173 159.526C96.597 159.728 98.788 160.201 100.748 160.945V160.945C102.268 161.508 103.414 162.209 104.185 163.049V163.049C105.355 164.296 105.725 165.72 105.295 167.323V167.323C104.86 168.884 103.77 169.964 102.023 170.563V170.563C102.464 171.381 102.766 172.31 102.927 173.348 103.088 174.394 103.163 175.872 103.153 177.783V177.783C103.165 178.27 103.003 178.694 102.667 179.053 102.338 179.413 101.929 179.603 101.44 179.622 100.95 179.641 100.526 179.482 100.167 179.146 99.808 178.81 99.619 178.398 99.6 177.909ZM94.326 166.805L94.405 166.822C95.814 166.944 96.991 167.156 97.938 167.46V167.46C98.078 167.476 98.199 167.485 98.301 167.486V167.486C99.31 167.53 100.147 167.452 100.811 167.251V167.251C101.42 167.053 101.775 166.766 101.875 166.391V166.391C101.979 166.065 101.897 165.76 101.629 165.478V165.478C101.206 165.026 100.49 164.617 99.481 164.253V164.253C98.269 163.783 96.801 163.426 95.076 163.183V163.183C94.862 164.189 94.612 165.397 94.326 166.805ZM115.863 179.111V179.111C115.606 178.686 115.542 178.246 115.671 177.791V177.791L119.401 162.576C119.499 162.24 119.674 161.954 119.927 161.719 120.185 161.477 120.489 161.326 120.838 161.267V161.267C121.201 161.152 121.573 161.168 121.956 161.313 122.339 161.459 122.646 161.695 122.878 162.022V162.022L125.337 166.393 128.227 171.506 130.546 175.803C130.79 176.23 130.845 176.678 130.711 177.147 130.576 177.616 130.289 177.97 129.848 178.209 129.415 178.454 128.961 178.51 128.485 178.377 128.003 178.244 127.644 177.971 127.408 177.557V177.557L125.515 174.437C123.634 174.634 121.78 174.893 119.955 175.211V175.211L119.154 178.682C119.012 179.145 118.728 179.502 118.302 179.753 117.87 180.005 117.416 180.064 116.94 179.931 116.465 179.797 116.106 179.524 115.863 179.111ZM120.939 171.434V171.434C121.575 171.351 122.496 171.231 123.703 171.074V171.074L121.901 167.639ZM146.054 173.244V173.244C145.525 173.468 145.004 173.443 144.491 173.169V173.169C144.049 173.002 143.718 172.701 143.499 172.265V172.265C142.776 170.699 141.741 168.49 140.392 165.638V165.638L137.387 159.186C137.186 158.741 137.169 158.291 137.336 157.834 137.5 157.385 137.805 157.053 138.25 156.837 138.692 156.63 139.141 156.61 139.598 156.778 140.047 156.942 140.38 157.242 140.6 157.678V157.678L143.398 163.696 146.098 169.472C146.853 169.131 147.946 168.629 149.378 167.967 150.807 167.299 151.859 166.812 152.535 166.506V166.506C152.979 166.305 153.427 166.282 153.879 166.438 154.333 166.599 154.657 166.893 154.85 167.319 155.045 167.751 155.056 168.197 154.883 168.657 154.709 169.117 154.4 169.448 153.956 169.649V169.649C153.45 169.877 152.138 170.478 150.018 171.451V171.451C147.889 172.436 146.568 173.033 146.054 173.244ZM167.542 160.536V160.536C167.165 160.845 166.734 160.984 166.248 160.95 165.766 160.922 165.363 160.726 165.038 160.362V160.362C164.758 160.021 164.616 159.627 164.612 159.18 164.607 158.743 164.747 158.365 165.029 158.046V158.046C163.178 155.761 160.81 152.89 157.924 149.431V149.431C157.558 149.628 157.17 149.687 156.76 149.609 156.35 149.531 156.005 149.321 155.725 148.98V148.98C155.415 148.604 155.289 148.171 155.346 147.683 155.408 147.2 155.627 146.803 156.004 146.494V146.494L158.224 144.695C158.601 144.386 159.033 144.259 159.522 144.317 160.005 144.378 160.401 144.597 160.711 144.974V144.974C160.982 145.305 161.114 145.681 161.106 146.103 161.093 146.529 160.949 146.906 160.675 147.236V147.236C163.533 150.63 165.882 153.462 167.72 155.731V155.731C168.088 155.516 168.482 155.443 168.903 155.512 169.318 155.586 169.667 155.779 169.95 156.092V156.092C170.26 156.469 170.4 156.898 170.372 157.38 170.339 157.865 170.14 158.271 169.776 158.596V158.596ZM181.692 142.824V142.824C182.092 143.104 182.336 143.483 182.425 143.962 182.51 144.446 182.413 144.888 182.133 145.287 181.849 145.692 181.467 145.935 180.987 146.014 180.503 146.1 180.061 146.002 179.662 145.722 179.262 145.442 177.241 144.047 173.598 141.536 169.961 139.029 167.954 137.614 167.575 137.292V137.292C167.187 136.996 166.961 136.608 166.896 136.131 166.831 135.653 166.938 135.214 167.218 134.814V134.814C167.268 134.743 167.321 134.678 167.378 134.62V134.62C167.401 134.588 167.421 134.548 167.437 134.502V134.502C168.339 132.621 169.15 131.223 169.872 130.309V130.309C171.317 128.514 172.971 127.551 174.834 127.42V127.42C176.273 127.311 177.514 127.613 178.556 128.326 179.608 129.039 180.252 129.971 180.488 131.124V131.124C180.705 132.084 180.695 133.089 180.458 134.138 180.215 135.184 179.82 136.143 179.273 137.017V137.017C179.092 137.298 178.885 137.594 178.652 137.904 178.413 138.21 178.117 138.574 177.765 138.996 177.403 139.419 177.197 139.655 177.148 139.702V139.702C179.252 141.135 180.767 142.176 181.692 142.824ZM176.28 135.104V135.104C176.63 134.582 176.871 134.028 177.003 133.444 177.135 132.859 177.148 132.363 177.043 131.954V131.954C176.994 131.756 176.931 131.602 176.853 131.491 176.78 131.374 176.577 131.244 176.245 131.101 175.909 130.964 175.525 130.907 175.092 130.93V130.93C174.245 130.998 173.432 131.53 172.652 132.526V132.526C172.122 133.19 171.554 134.135 170.949 135.359V135.359C171.866 136.018 172.96 136.792 174.23 137.682V137.682L174.241 137.666 175.032 136.763C175.313 136.421 175.551 136.123 175.746 135.868 175.946 135.616 176.124 135.362 176.28 135.104ZM194.793 121.969V121.969C194.63 122.429 194.333 122.77 193.9 122.993 193.473 123.218 193.026 123.259 192.56 123.116V123.116C192.144 122.969 191.818 122.705 191.584 122.325 191.354 121.953 191.277 121.558 191.354 121.138V121.138C188.588 120.141 185.076 118.909 180.817 117.441V117.441C180.606 117.799 180.304 118.051 179.913 118.196 179.521 118.341 179.118 118.341 178.702 118.194V118.194C178.242 118.031 177.91 117.727 177.706 117.279 177.509 116.834 177.491 116.381 177.654 115.921V115.921L178.623 113.234C178.786 112.774 179.091 112.442 179.538 112.238 179.983 112.041 180.436 112.024 180.896 112.186V112.186C181.299 112.328 181.607 112.582 181.818 112.947 182.027 113.319 182.099 113.716 182.035 114.14V114.14C186.237 115.566 189.712 116.774 192.46 117.765V117.765C192.663 117.39 192.962 117.124 193.358 116.966 193.752 116.814 194.151 116.799 194.554 116.92V116.92C195.014 117.083 195.357 117.377 195.582 117.804 195.805 118.237 195.844 118.687 195.701 119.153V119.153ZM23.826 91.877C23.826 88.025 26.949 84.903 30.8 84.903 34.651 84.903 37.773 88.025 37.773 91.877 37.773 95.728 34.651 98.85 30.8 98.85 26.949 98.85 23.826 95.728 23.826 91.877ZM186.227 91.877C186.227 88.025 189.349 84.903 193.2 84.903 197.051 84.903 200.174 88.025 200.174 91.877 200.174 95.728 197.051 98.85 193.2 98.85 189.349 98.85 186.227 95.728 186.227 91.877Z" fill="#ff00ad" data-fill-palette-color="quaternary"></path></svg></g></svg></g></svg></g></svg></g></svg></g></svg></g><defs></defs></svg><rect width="320" height="360" fill="none" stroke="none" visibility="hidden"></rect></g></svg>